<?xml version="1.0" encoding="utf-8"?>
<!-- Generator: Adobe Illustrator 19.0.0, SVG Export Plug-In . SVG Version: 6.00 Build 0)  -->
<svg version="1.1" id="Layer_1" xmlns="http://www.w3.org/2000/svg" xmlns:xlink="http://www.w3.org/1999/xlink" x="0px" y="0px"
	 viewBox="0 0 250 250" style="enable-background:new 0 0 250 250;" xml:space="preserve">
<style type="text/css">
	.st0{fill:#939598;}
	.st1{fill:#BCBEC0;}
	.st2{fill:none;stroke:#58595B;stroke-width:5;stroke-miterlimit:10;}
	.st3{fill:none;}
	.st4{fill:#58595B;}
	.st5{font-family:'Cochin';}
	.st6{font-size:82px;}
	.st7{fill:#6D6E71;}
	.st8{font-size:98px;}
	.st9{fill:#00AEEF;}
	.st10{font-size:118px;}
</style>
<path id="XMLID_140_" class="st0" d="M233.8,21.3c0.6,5.7,1.1,12.3,1.3,19.7c0.1,4.8,0.2,12.9-0.4,22.8c-1.3,19.6-4.7,34.8-6.1,41.1
	c-1.9,7.9-5.3,21.9-13,39.3c-7.3,16.6-15.2,28.8-19.8,35.5c-1.2,1.8-16.2,23.3-34.7,39.4c-4.7,4.1-5.8,4.5-13.4,11.1
	c-0.7,0.6-22.3,17.2-14.7,11.3c-2.6,2-4.7,3.6-7.7,3.7c-2.6,0.1-4.4-1.1-8.6-3.9c-7.2-5-12.4-9.1-16.7-12.5c-4.8-3.8-6-5-7.2-6.2
	c-0.5-0.5-1.6-1.6-3.3-3.1c-1.5-1.3-2.3-1.9-3.3-2.7c-2.1-1.7-3.2-3-5.3-5.1c-4.9-5.2-4.3-4.3-8.1-8.4c-2.4-2.7-6-6.5-10.1-11.8
	c-4.6-5.8-7.6-10.3-10.4-14.6c-1.8-2.7-4.7-7.2-8.2-13.3c-1.4-2.4-4.4-7.8-7.7-14.8c-4.8-10.2-7.7-18.4-8.8-21.4
	c-0.8-2.4-4.1-11.7-6.9-24.8C19.3,96.2,16,80.1,15,58.7c0,0-0.5-11,0-24c0-0.9,0.3-3.1,0.3-5.1c0-0.5,0-1.3,0.1-2.4
	c0-0.6,0.1-0.8,0.1-1.6c0-0.4,0.1-1,0.1-1.8c0-1.9-0.1-2,0.1-2.4c0.3-0.4,0.7-0.4,2.1-0.8c1.5-0.4-3,0.7,2.4-0.7
	c3-0.8,4.5-1.1,5.3-1.3c4.6-1,9.1-2,10.6-2.3c5.5-1.2,4.9-1.1,7.8-1.7c6.8-1.4,12.1-2.4,14.7-2.9c4.6-0.8,9.7-1.8,16-2.7
	c8-1.1,13.8-1.7,24.8-2.7c7.5-0.7,11.2-1,15.8-1.2c2.4-0.1,9.4-0.4,18.4-0.2c8,0.2,14.1,0.7,18.7,1c2.1,0.2,8,0.7,16,1.6
	c5.5,0.7,15.6,1.9,28.1,4.3C206.5,13.9,219.2,16.8,233.8,21.3z"/>
<path id="XMLID_10_" class="st1" d="M16.2,21.1c-0.6,5.7-1.1,12.3-1.3,19.7c-0.1,4.8-0.2,12.9,0.4,22.8c1.3,19.6,4.7,34.8,6.1,41.1
	c1.9,7.9,5.3,21.9,13,39.3c7.3,16.6,15.2,28.8,19.8,35.5c1.2,1.8,16.2,23.3,34.7,39.4c4.7,4.1,5.8,4.5,13.4,11.1
	c0.7,0.6,22.3,17.2,14.7,11.3c-0.6-0.5-0.9-0.7-0.9-0.8c0.1-0.2,6.1,4.8,8.3,4.9C140.1,246.1,149,6.9,134.8,5.1
	c0,0-1.3-0.8-18.4-0.2l0,0c-8,0.2-14.1,0.7-18.7,1c-2.1,0.2-8,0.7-16,1.6C76.2,8.2,66,9.5,53.5,11.9C43.5,13.8,30.8,16.7,16.2,21.1z
	"/>
<path id="XMLID_9_" class="st2" d="M233.8,21.3c0.6,5.7,1.1,12.3,1.3,19.7c0.1,4.8,0.2,12.9-0.4,22.8c-1.3,19.6-4.7,34.8-6.1,41.1
	c-1.9,7.9-5.3,21.9-13,39.3c-7.3,16.6-15.2,28.8-19.8,35.5c-1.2,1.8-16.2,23.3-34.7,39.4c-4.7,4.1-5.8,4.5-13.4,11.1
	c-0.7,0.6-22.3,17.2-14.7,11.3c-2.6,2-4.7,3.6-7.7,3.7c-2.6,0.1-4.4-1.1-8.6-3.9c-7.2-5-12.4-9.1-16.7-12.5c-4.8-3.8-6-5-7.2-6.2
	c-0.5-0.5-1.6-1.6-3.3-3.1c-1.5-1.3-2.3-1.9-3.3-2.7c-2.1-1.7-3.2-3-5.3-5.1c-4.9-5.2-4.3-4.3-8.1-8.4c-2.4-2.7-6-6.5-10.1-11.8
	c-4.6-5.8-7.6-10.3-10.4-14.6c-1.8-2.7-4.7-7.2-8.2-13.3c-1.4-2.4-4.4-7.8-7.7-14.8c-4.8-10.2-7.7-18.4-8.8-21.4
	c-0.8-2.4-4.1-11.7-6.9-24.8C19.3,96.2,16,80.1,15,58.7c0,0-0.5-11,0-24c0-0.9,0.3-3.1,0.3-5.1c0-0.5,0-1.3,0.1-2.4
	c0-0.6,0.1-0.8,0.1-1.6c0-0.4,0.1-1,0.1-1.8c0-1.9-0.1-2,0.1-2.4c0.3-0.4,0.7-0.4,2.1-0.8c1.5-0.4-3,0.7,2.4-0.7
	c3-0.8,4.5-1.1,5.3-1.3c4.6-1,9.1-2,10.6-2.3c5.5-1.2,4.9-1.1,7.8-1.7c6.8-1.4,12.1-2.4,14.7-2.9c4.6-0.8,9.7-1.8,16-2.7
	c8-1.1,13.8-1.7,24.8-2.7c7.5-0.7,11.2-1,15.8-1.2c2.4-0.1,9.4-0.4,18.4-0.2c8,0.2,14.1,0.7,18.7,1c2.1,0.2,8,0.7,16,1.6
	c5.5,0.7,15.6,1.9,28.1,4.3C206.5,13.9,219.2,16.8,233.8,21.3z"/>
<path id="XMLID_12_" class="st2" d="M136,5c0,0,18.7,116.1-10.7,240.1"/>
<rect id="XMLID_5_" x="139.8" y="125" class="st3" width="58.7" height="60.9"/>
<text id="XMLID_4_" transform="matrix(1 0 0 1 139.8281 183.3835)" class="st4 st5 st6">C</text>
<rect id="XMLID_16_" x="162.3" y="79.9" class="st3" width="64.2" height="80.4"/>
<text id="XMLID_3_" transform="matrix(1 0 0 1 162.3054 149.6667)" class="st7 st5 st8">P</text>
<rect id="XMLID_2_" x="146.5" y="15.7" class="st3" width="77" height="84.9"/>
<text id="XMLID_1_" transform="matrix(1 0 0 1 146.4562 99.6999)" class="st9 st5 st10">S</text>
</svg>
