<?xml version="1.0" encoding="utf-8"?>
<!-- Generator: Adobe Illustrator 19.0.0, SVG Export Plug-In . SVG Version: 6.00 Build 0)  -->
<svg version="1.1" id="Layer_1" xmlns="http://www.w3.org/2000/svg" xmlns:xlink="http://www.w3.org/1999/xlink" x="0px" y="0px"
	 viewBox="0 0 150 150" style="enable-background:new 0 0 150 150;" xml:space="preserve">
<style type="text/css">
	.st0{fill:#6D6E71;}
</style>
<g id="XMLID_1_">
	<line id="XMLID_34_" class="st0" x1="21.2" y1="74.7" x2="128.8" y2="75.3"/>
	<g id="XMLID_29_">
		<path id="XMLID_33_" class="st0" d="M21.2,89.7c31.4,0.2,62.7,0.4,94.1,0.6c4.5,0,9.1,0.1,13.6,0.1c7.8,0,15.4-6.9,15-15
			c-0.4-8.2-6.6-14.9-15-15c-31.4-0.2-62.7-0.4-94.1-0.6c-4.5,0-9.1-0.1-13.6-0.1c-7.8,0-15.4,6.9-15,15
			C6.5,82.8,12.8,89.6,21.2,89.7L21.2,89.7z"/>
	</g>
</g>
<g id="XMLID_2_">
	<line id="XMLID_27_" class="st0" x1="21.2" y1="109.7" x2="128.8" y2="110.3"/>
	<g id="XMLID_22_">
		<path id="XMLID_26_" class="st0" d="M21.2,124.7c31.4,0.2,62.7,0.4,94.1,0.6c4.5,0,9.1,0.1,13.6,0.1c7.8,0,15.4-6.9,15-15
			c-0.4-8.2-6.6-14.9-15-15c-31.4-0.2-62.7-0.4-94.1-0.6c-4.5,0-9.1-0.1-13.6-0.1c-7.8,0-15.4,6.9-15,15
			C6.5,117.8,12.8,124.6,21.2,124.7L21.2,124.7z"/>
	</g>
</g>
<g id="XMLID_3_">
	<line id="XMLID_28_" class="st0" x1="21.2" y1="38.7" x2="128.8" y2="39.3"/>
	<g id="XMLID_17_">
		<path id="XMLID_21_" class="st0" d="M21.2,53.7c31.4,0.2,62.7,0.4,94.1,0.6c4.5,0,9.1,0.1,13.6,0.1c7.8,0,15.4-6.9,15-15
			c-0.4-8.2-6.6-14.9-15-15c-31.4-0.2-62.7-0.4-94.1-0.6c-4.5,0-9.1-0.1-13.6-0.1c-7.8,0-15.4,6.9-15,15
			C6.5,46.8,12.8,53.6,21.2,53.7L21.2,53.7z"/>
	</g>
</g>
</svg>
